<?xml version="1.0" encoding="UTF-8" standalone="no"?>
<!-- Created with Inkscape (http://www.inkscape.org/) -->
<svg
   xmlns:dc="http://purl.org/dc/elements/1.1/"
   xmlns:cc="http://creativecommons.org/ns#"
   xmlns:rdf="http://www.w3.org/1999/02/22-rdf-syntax-ns#"
   xmlns:svg="http://www.w3.org/2000/svg"
   xmlns="http://www.w3.org/2000/svg"
   xmlns:sodipodi="http://sodipodi.sourceforge.net/DTD/sodipodi-0.dtd"
   xmlns:inkscape="http://www.inkscape.org/namespaces/inkscape"
   id="svg2474"
   sodipodi:version="0.32"
   inkscape:version="0.46"
   width="200.74818"
   height="291.57779"
   version="1.0"
   sodipodi:docname="pyzh_new.svg"
   inkscape:output_extension="org.inkscape.output.svg.inkscape">
  <metadata
     id="metadata2479">
    <rdf:RDF>
      <cc:Work
         rdf:about="">
        <dc:format>image/svg+xml</dc:format>
        <dc:type
           rdf:resource="http://purl.org/dc/dcmitype/StillImage" />
      </cc:Work>
    </rdf:RDF>
  </metadata>
  <defs
     id="defs2477">
    <inkscape:perspective
       sodipodi:type="inkscape:persp3d"
       inkscape:vp_x="0 : 526.18109 : 1"
       inkscape:vp_y="0 : 1000 : 0"
       inkscape:vp_z="744.09448 : 526.18109 : 1"
       inkscape:persp3d-origin="372.04724 : 350.78739 : 1"
       id="perspective2481" />
  </defs>
  <sodipodi:namedview
     inkscape:window-height="725"
     inkscape:window-width="1198"
     inkscape:pageshadow="2"
     inkscape:pageopacity="0.0"
     guidetolerance="10.0"
     gridtolerance="10.0"
     objecttolerance="10.0"
     borderopacity="1.0"
     bordercolor="#666666"
     pagecolor="#ffffff"
     id="base"
     showgrid="false"
     inkscape:zoom="0.85969298"
     inkscape:cx="-5.6257174"
     inkscape:cy="208.98615"
     inkscape:window-x="167"
     inkscape:window-y="227"
     inkscape:current-layer="svg2474" />
  <path
     style="opacity:1;fill:#326496;fill-opacity:1;fill-rule:evenodd"
     d="M 119.24818,0.3944604 C 114.04077,0.5044724 108.69356,0.3616394 103.09193,0.3444604 C 87.441052,0.2951044 70.221757,-2.8543276 55.560677,10.89471 C 44.261597,21.490894 49.239307,39.529045 47.685677,54.05096 C 47.937177,68.314313 55.942927,85.198475 70.216927,85.76971 C 93.297729,86.693387 119.60605,85.526836 144.31068,85.92596 C 159.48305,86.171083 177.03364,88.736066 174.46693,118.86346 C 171.9002,148.99086 172.69652,186.00991 165.93568,217.55096 C 164.86498,222.54604 164.25772,226.60518 163.18568,230.64471 C 164.75735,220.00838 153.99265,218.26834 143.31068,218.33221 L 26.873177,218.36346 C 21.257187,218.3357 20.341007,216.65971 19.529427,213.36346 C 18.760297,210.23969 22.029137,209.65921 23.560677,209.45721 L 134.24818,209.45721 C 141.24651,208.85013 142.0629,205.72788 139.71693,201.26971 C 136.8125,195.75028 121.14637,178.21956 108.87318,177.14471 L 22.279427,177.14471 C 15.950997,177.36573 14.768097,172.45357 14.716927,168.89471 C 14.663667,165.19048 18.629807,166.03891 21.123177,165.92596 L 88.435677,165.92596 C 96.058211,166.10992 97.531077,162.94779 94.810677,157.67596 C 92.1202,152.46212 73.478417,134.93175 65.154427,135.01971 L 18.216927,135.01971 C 12.591337,135.11843 10.792647,134.43377 10.498177,129.05096 C 10.361307,126.54911 13.352257,126.09625 17.123177,125.92596 L 59.654427,125.92596 C 64.577627,123.46038 59.948777,119.19418 56.685677,115.51971 C 50.506827,108.56193 47.479887,103.00807 37.560677,100.92596 L 8.8419275,100.92596 C 4.0216575,100.66116 6.9020175,82.673619 0.46692746,80.83221 C 0.33067746,86.358797 -0.74914254,89.945743 0.93066746,98.274715 C 2.2585775,104.85888 1.3253475,108.71568 9.0606775,108.83221 L 36.341927,108.83221 C 40.073277,108.91539 42.763897,110.23562 43.748177,111.92596 C 44.636657,113.45178 50.141027,116.96232 43.623177,117.23846 L 8.6544275,117.23846 C 4.9981275,117.18358 0.77412746,119.409 1.5294275,126.67596 C 2.3058675,134.14632 2.8226875,144.84152 12.185677,144.89471 L 62.560677,144.89471 C 69.061547,144.87629 68.928817,145.97472 71.810677,148.58221 C 74.771567,151.26122 82.00497,154.95054 70.560677,155.14471 L 13.685677,155.20721 C 4.2916275,155.25279 4.7310675,159.59701 6.1231775,171.67596 C 7.5187175,183.78457 11.888367,188.08725 37.123177,188.48846 L 107.87318,188.48846 C 111.75969,188.60692 116.09436,189.92765 119.40443,192.67596 C 124.27377,196.71891 124.62911,198.63425 116.90443,198.61346 L 16.716927,198.61346 C 7.1612175,198.48237 8.6525175,207.77819 12.591927,222.01971 C 15.250267,231.62999 30.835717,232.00306 42.029427,231.83221 C 53.223137,231.66135 131.95044,231.91822 141.84193,231.83221 C 152.98251,232.37074 157.2023,235.46586 155.79201,239.6347 C 154.45128,243.5979 144.78865,243.15117 143.21693,243.70721 C 137.83934,244.55601 43.736037,243.28925 25.654427,242.98846 C 17.169277,243.12388 23.204387,251.7672 26.935677,256.14471 C 43.977017,276.13748 64.811927,289.14246 76.060677,290.05096 C 89.572514,291.14222 98.880976,292.43986 113.43568,290.80096 C 125.55264,289.43657 137.07817,284.6031 147.18568,278.76971 C 156.9288,270.38278 167.9617,261.59735 174.43568,250.33221 C 181.78395,237.54574 183.4309,226.39976 186.18568,211.01971 C 189.84054,190.61445 190.68079,170.18587 192.96693,149.58221 C 196.28385,120.81395 199.59707,94.626255 200.74818,66.23846 C 179.5722,65.662781 114.88876,65.359837 84.498177,65.51971 C 70.849437,65.59151 64.204517,59.193386 68.310677,46.83221 C 95.971815,46.83221 123.61829,46.832209 151.27943,46.83221 C 150.95074,34.300053 154.68253,20.532548 144.52943,10.36346 C 136.20667,2.0276094 127.92718,0.2111074 119.24818,0.3944604 z M 126.74818,13.55096 C 131.35521,13.550961 136.49143,18.081711 136.49143,23.67596 C 136.49143,29.270208 131.35521,33.83221 126.74818,33.83221 C 122.14115,33.832211 117.30443,29.270209 117.30443,23.67596 C 117.30443,18.081711 122.14115,13.55096 126.74818,13.55096 z M 156.68568,245.08221 C 155.09504,247.56923 153.13844,250.29337 150.71693,253.36346 C 136.70614,271.12693 124.24065,280.36852 94.998177,279.58221 C 65.755707,278.7959 52.706407,264.1412 46.194337,259.36746 C 39.682267,254.59372 45.829637,256.78756 55.179427,256.73846 C 65.185307,256.68591 130.33861,256.7122 137.12318,256.45721 C 148.00069,256.04839 147.33647,258.14236 153.93568,249.05096 C 154.94575,247.65943 155.85346,246.35269 156.68568,245.08221 z"
     id="path2485"
     sodipodi:nodetypes="csscsssscccsccsccsccsccsccscccsccsccsccsccsccsccsscsccssscssccsccsccsssccszzsssc" />
</svg>
